<svg width="806" height="710" viewBox="0 0 806 710" fill="none" xmlns="http://www.w3.org/2000/svg">
<path d="M405.287 371.42L328.507 294.702L307.134 316.059L244.756 253.731L203.506 294.948L237.058 328.473L188.602 376.89L243.024 431.269" stroke="url(#paint0_linear_958_824)" stroke-width="1.31" stroke-linecap="round" stroke-linejoin="round"/>
<path d="M327.586 350.609L403.895 426.868L458.97 371.837L384.275 297.203L468.422 213.113L529.206 273.849L501.546 301.487L542.807 342.725L528.789 356.731L487.518 315.503" stroke="url(#paint1_linear_958_824)" stroke-width="1.31" stroke-linecap="round" stroke-linejoin="round"/>
<path d="M440.964 265.473L411.539 294.863L487.71 370.972L473.682 384.988L501.738 413.011L543.811 370.972L558.619 385.768L586.087 358.322L599.132 371.356L558.427 412.039L544.677 398.311L501.62 441.322L460.434 400.17L405.199 455.36L300.727 350.972L327.917 323.815L404.033 399.87L432.667 371.249L356.999 295.643L384.274 268.4L369.434 253.571L342.158 280.825L328.558 267.225L307.698 288.068L244.39 224.812L175.255 293.891L210.507 329.125L161.805 377.788L244.604 460.51L258.429 446.685L271.805 460.05L256.804 475.039L271.805 490.028" stroke="url(#paint2_linear_958_824)" stroke-width="1.31" stroke-linecap="round" stroke-linejoin="round"/>
<path d="M256.036 338.558L264.975 329.627L230.963 295.643L244.959 281.658L293.544 330.204L272.94 350.801L369.137 446.92L354.959 461.087L245.74 351.955L218.336 379.337L355.729 516.63L383.913 488.468L404.314 508.863L460.094 453.127L502.852 495.85L627.04 371.762L598.439 343.195L612.05 329.595L570.297 287.887L554.944 303.217" stroke="url(#paint3_linear_958_824)" stroke-width="1.31" stroke-linecap="round" stroke-linejoin="round"/>
<path d="M242.523 377.767L355.015 490.156L383.776 461.418L403.685 481.31L459.091 425.96L501.314 468.149L543.954 425.554" stroke="url(#paint4_linear_958_824)" stroke-width="1.31" stroke-linecap="round" stroke-linejoin="round"/>
<path d="M499.287 388.524L516.212 371.613L439.219 294.681L452.808 281.102L474.139 302.416L501.831 274.746L467.745 240.687L454.722 253.699L477.56 276.519" stroke="url(#paint5_linear_958_824)" stroke-width="1.31" stroke-linecap="round" stroke-linejoin="round"/>
<path d="M556.053 360.47L585.948 330.588L570.477 315.129L556.213 329.381L529.868 303.057L558.384 274.564L454.265 170.529L398.634 226.115L383.227 210.72L452.746 141.256L543.458 231.884L612.785 162.613L689.821 239.576" stroke="url(#paint6_linear_958_824)" stroke-width="1.31" stroke-linecap="round" stroke-linejoin="round"/>
<path d="M385.014 516.63L356.273 545.336L300.375 489.483L271.881 517.944L133.558 379.722L181.683 331.635L145.607 295.6L244.873 196.415L307.774 259.266L328.356 238.7L341.903 252.247L355.033 239.127L326.571 210.688L306.138 231.104L245.033 170.048L37.5 377.414" stroke="url(#paint7_linear_958_824)" stroke-width="1.31" stroke-linecap="round" stroke-linejoin="round"/>
<path d="M133.288 310.867L152.833 330.396L104.633 378.568L271.45 545.24L286.612 530.091L354.432 597.845L340.265 611.99L327.862 599.587L266.169 661.23L253.969 649.04L314.989 588.081L285.863 558.968L229.816 614.971" stroke="url(#paint8_linear_958_824)" stroke-width="1.31" stroke-linecap="round" stroke-linejoin="round"/>
<path d="M397.272 253.774L325.272 181.843L305.887 201.212L245.659 141.032L92.3772 294.19L78.531 280.355L214.491 144.494L199.533 129.547L104.416 224.587L89.8325 210.026L160.229 139.686L120.112 99.6018L96.4509 123.244L67.2188 94.0464" stroke="url(#paint9_linear_958_824)" stroke-width="1.31" stroke-linecap="round" stroke-linejoin="round"/>
<path d="M369.312 198.402L452.368 115.403L542.011 204.972L625.142 121.909L609.884 106.663L542.011 174.471L460.398 92.9246L500.707 52.6587" stroke="url(#paint10_linear_958_824)" stroke-width="1.31" stroke-linecap="round" stroke-linejoin="round"/>
<path d="M302.461 516.629L355.868 569.983L396.583 529.3L404.795 537.505L461.666 480.68L503.589 522.559L488.599 537.537L459.998 508.959L375.488 593.401L404.089 621.979L476.26 549.866L501.879 575.463L526.973 550.389L556.312 579.704L515.105 620.868L530.095 635.846L491.572 674.338L478.174 660.963L435.16 703.942" stroke="url(#paint11_linear_958_824)" stroke-width="1.31" stroke-linecap="round" stroke-linejoin="round"/>
<path d="M519.266 508.446L655.44 372.382L627.801 344.776L640.3 332.287L557.062 249.117L614.211 192.003L717.283 294.991L759.046 253.262L799.868 294.062" stroke="url(#paint12_linear_958_824)" stroke-width="1.31" stroke-linecap="round" stroke-linejoin="round"/>
<path d="M439.218 102.85L355.927 186.074L326.652 156.833L304.969 178.488L242.784 116.353L229.921 129.206L215.594 114.9L245.927 84.5916L306.647 145.263L325.348 126.577L340.039 141.267L383.374 97.9672L341.193 55.8318L305.61 91.3756V6.05762" stroke="url(#paint13_linear_958_824)" stroke-width="1.31" stroke-linecap="round" stroke-linejoin="round"/>
<path d="M122.328 330.268L77.1434 375.416L150.149 448.363L134.57 463.918L58.3788 387.788L46.1791 399.978L152.448 506.16L123.109 535.465L49.3333 461.738L6.0625 504.964" stroke="url(#paint14_linear_958_824)" stroke-width="1.31" stroke-linecap="round" stroke-linejoin="round"/>
<path d="M519.297 514.718C522.645 514.718 525.359 512.006 525.359 508.66C525.359 505.315 522.645 502.603 519.297 502.603C515.949 502.603 513.234 505.315 513.234 508.66C513.234 512.006 515.949 514.718 519.297 514.718Z" fill="#558892"/>
<path d="M435.195 710C438.543 710 441.258 707.288 441.258 703.942C441.258 700.597 438.543 697.885 435.195 697.885C431.847 697.885 429.133 700.597 429.133 703.942C429.133 707.288 431.847 710 435.195 710Z" fill="#00AAAB"/>
<path d="M385.016 522.687C388.364 522.687 391.078 519.975 391.078 516.63C391.078 513.284 388.364 510.572 385.016 510.572C381.667 510.572 378.953 513.284 378.953 516.63C378.953 519.975 381.667 522.687 385.016 522.687Z" fill="#63AEB4"/>
<path d="M327.406 356.282C330.754 356.282 333.469 353.57 333.469 350.225C333.469 346.879 330.754 344.167 327.406 344.167C324.058 344.167 321.344 346.879 321.344 350.225C321.344 353.57 324.058 356.282 327.406 356.282Z" fill="#1D2C48"/>
<path d="M229.523 620.986C232.872 620.986 235.586 618.274 235.586 614.928C235.586 611.583 232.872 608.871 229.523 608.871C226.175 608.871 223.461 611.583 223.461 614.928C223.461 618.274 226.175 620.986 229.523 620.986Z" fill="#558892"/>
<path d="M37.4921 383.824C40.8403 383.824 43.5545 381.112 43.5545 377.767C43.5545 374.421 40.8403 371.709 37.4921 371.709C34.1439 371.709 31.4297 374.421 31.4297 377.767C31.4297 381.112 34.1439 383.824 37.4921 383.824Z" fill="#00AAAB"/>
<path d="M6.0624 511.117C9.41057 511.117 12.1248 508.405 12.1248 505.059C12.1248 501.714 9.41057 499.002 6.0624 499.002C2.71423 499.002 0 501.714 0 505.059C0 508.405 2.71423 511.117 6.0624 511.117Z" fill="#00AAAB"/>
<path d="M255.648 344.776C258.997 344.776 261.711 342.064 261.711 338.718C261.711 335.373 258.997 332.661 255.648 332.661C252.3 332.661 249.586 335.373 249.586 338.718C249.586 342.064 252.3 344.776 255.648 344.776Z" fill="#5CA289"/>
<path d="M243.173 437.679C246.716 437.679 249.588 434.809 249.588 431.269C249.588 427.729 246.716 424.859 243.173 424.859C239.63 424.859 236.758 427.729 236.758 431.269C236.758 434.809 239.63 437.679 243.173 437.679Z" fill="#5E959B"/>
<path d="M397.275 260.142C400.818 260.142 403.69 257.272 403.69 253.732C403.69 250.192 400.818 247.322 397.275 247.322C393.732 247.322 390.859 250.192 390.859 253.732C390.859 257.272 393.732 260.142 397.275 260.142Z" fill="#62B190"/>
<path d="M441.267 272.342C444.81 272.342 447.682 269.472 447.682 265.932C447.682 262.392 444.81 259.522 441.267 259.522C437.724 259.522 434.852 262.392 434.852 265.932C434.852 269.472 437.724 272.342 441.267 272.342Z" fill="#00AAAB"/>
<path d="M439.219 108.96C442.567 108.96 445.281 106.248 445.281 102.903C445.281 99.5573 442.567 96.8452 439.219 96.8452C435.87 96.8452 433.156 99.5573 433.156 102.903C433.156 106.248 435.87 108.96 439.219 108.96Z" fill="#5E959B"/>
<path d="M805.999 294.19C805.999 297.534 803.229 300.247 799.883 300.247C796.536 300.247 793.82 297.534 793.82 294.19C793.82 290.846 796.536 288.132 799.883 288.132C803.229 288.132 805.999 290.846 805.999 294.19Z" fill="#009180"/>
<path d="M498.976 394.582C502.325 394.582 505.039 391.87 505.039 388.525C505.039 385.179 502.325 382.467 498.976 382.467C495.628 382.467 492.914 385.179 492.914 388.525C492.914 391.87 495.628 394.582 498.976 394.582Z" fill="#62B4BB"/>
<path d="M486.851 321.465C490.2 321.465 492.914 318.753 492.914 315.407C492.914 312.062 490.2 309.35 486.851 309.35C483.503 309.35 480.789 312.062 480.789 315.407C480.789 318.753 483.503 321.465 486.851 321.465Z" fill="#558892"/>
<path d="M555.937 366.528C559.286 366.528 562 363.816 562 360.47C562 357.125 559.286 354.413 555.937 354.413C552.589 354.413 549.875 357.125 549.875 360.47C549.875 363.816 552.589 366.528 555.937 366.528Z" fill="#558892"/>
<path d="M133.885 317.426C137.511 317.426 140.45 314.49 140.45 310.867C140.45 307.244 137.511 304.307 133.885 304.307C130.26 304.307 127.32 307.244 127.32 310.867C127.32 314.49 130.26 317.426 133.885 317.426Z" fill="#009180"/>
<path d="M305.398 12.115C308.747 12.115 311.461 9.40298 311.461 6.05751C311.461 2.71204 308.747 0 305.398 0C302.05 0 299.336 2.71204 299.336 6.05751C299.336 9.40298 302.05 12.115 305.398 12.115Z" fill="#558892"/>
<path d="M501.203 58.7161C504.551 58.7161 507.265 56.0041 507.265 52.6586C507.265 49.3131 504.551 46.6011 501.203 46.6011C497.855 46.6011 495.141 49.3131 495.141 52.6586C495.141 56.0041 497.855 58.7161 501.203 58.7161Z" fill="#558892"/>
<defs>
<linearGradient id="paint0_linear_958_824" x1="187.896" y1="342.5" x2="405.993" y2="342.5" gradientUnits="userSpaceOnUse">
<stop stop-color="#72E6B4"/>
<stop offset="1" stop-color="#141D3D"/>
</linearGradient>
<linearGradient id="paint1_linear_958_824" x1="326.88" y1="319.99" x2="543.512" y2="319.99" gradientUnits="userSpaceOnUse">
<stop stop-color="#141D3D"/>
<stop offset="1" stop-color="#72EEF6"/>
</linearGradient>
<linearGradient id="paint2_linear_958_824" x1="161.11" y1="357.414" x2="599.837" y2="357.414" gradientUnits="userSpaceOnUse">
<stop stop-color="#141D3D"/>
<stop offset="1" stop-color="#72E6B4"/>
</linearGradient>
<linearGradient id="paint3_linear_958_824" x1="217.63" y1="399.144" x2="627.735" y2="399.144" gradientUnits="userSpaceOnUse">
<stop stop-color="#72E6B4"/>
<stop offset="0.1" stop-color="#60BF9D"/>
<stop offset="0.24" stop-color="#498E80"/>
<stop offset="0.39" stop-color="#356568"/>
<stop offset="0.53" stop-color="#274555"/>
<stop offset="0.66" stop-color="#1C2F47"/>
<stop offset="0.79" stop-color="#16213F"/>
<stop offset="0.9" stop-color="#141D3D"/>
</linearGradient>
<linearGradient id="paint4_linear_958_824" x1="241.828" y1="433.961" x2="544.649" y2="433.961" gradientUnits="userSpaceOnUse">
<stop stop-color="#141D3D"/>
<stop offset="1" stop-color="#72EEF6"/>
</linearGradient>
<linearGradient id="paint5_linear_958_824" x1="450.403" y1="249.885" x2="522.967" y2="375.67" gradientUnits="userSpaceOnUse">
<stop offset="0.2" stop-color="#141D3D"/>
<stop offset="1" stop-color="#72EEF6"/>
</linearGradient>
<linearGradient id="paint6_linear_958_824" x1="466.603" y1="295.012" x2="606.332" y2="155.171" gradientUnits="userSpaceOnUse">
<stop offset="0.1" stop-color="#72EEF6"/>
<stop offset="1" stop-color="#141D3D"/>
</linearGradient>
<linearGradient id="paint7_linear_958_824" x1="211.257" y1="169.354" x2="211.257" y2="546.041" gradientUnits="userSpaceOnUse">
<stop stop-color="#141D3D"/>
<stop offset="1" stop-color="#72EEF6"/>
</linearGradient>
<linearGradient id="paint8_linear_958_824" x1="103.927" y1="486.043" x2="355.127" y2="486.043" gradientUnits="userSpaceOnUse">
<stop stop-color="#72EEF6"/>
<stop offset="1" stop-color="#141D3D"/>
</linearGradient>
<linearGradient id="paint9_linear_958_824" x1="252.512" y1="307.17" x2="162.176" y2="58.7762" gradientUnits="userSpaceOnUse">
<stop stop-color="#72E6B4"/>
<stop offset="0.36" stop-color="#478A7E"/>
<stop offset="0.69" stop-color="#223B4F"/>
<stop offset="0.84" stop-color="#141D3D"/>
</linearGradient>
<linearGradient id="paint10_linear_958_824" x1="368.607" y1="128.81" x2="625.847" y2="128.81" gradientUnits="userSpaceOnUse">
<stop stop-color="#141D3D"/>
<stop offset="1" stop-color="#72EEF6"/>
</linearGradient>
<linearGradient id="paint11_linear_958_824" x1="301.766" y1="592.311" x2="557.007" y2="592.311" gradientUnits="userSpaceOnUse">
<stop offset="0.1" stop-color="#141D3D"/>
<stop offset="1" stop-color="#72EEF6"/>
</linearGradient>
<linearGradient id="paint12_linear_958_824" x1="518.571" y1="350.225" x2="800.574" y2="350.225" gradientUnits="userSpaceOnUse">
<stop stop-color="#141D3D"/>
<stop offset="1" stop-color="#72EEF6"/>
</linearGradient>
<linearGradient id="paint13_linear_958_824" x1="214.899" y1="96.0656" x2="439.913" y2="96.0656" gradientUnits="userSpaceOnUse">
<stop offset="0.2" stop-color="#141D3D"/>
<stop offset="1" stop-color="#72EEF6"/>
</linearGradient>
<linearGradient id="paint14_linear_958_824" x1="5.36752" y1="432.861" x2="153.143" y2="432.861" gradientUnits="userSpaceOnUse">
<stop stop-color="#72EEF6"/>
<stop offset="0.8" stop-color="#141D3D"/>
</linearGradient>
</defs>
</svg>
