<svg width="144" height="30" viewBox="0 0 144 30" fill="none" xmlns="http://www.w3.org/2000/svg">
<path d="M107.261 15.3654C107.953 15.3654 108.844 15.3589 110.005 15.3459V14.8784C110.005 13.5243 109.108 12.784 107.773 12.784C106.438 12.784 105.619 13.3977 105.567 14.4952H101.615C101.742 11.8391 103.72 9.72201 107.773 9.72201C111.595 9.72201 113.957 11.6638 113.957 15.1836V23.3013H110.005V21.7427C108.85 23.0188 107.287 23.5546 105.619 23.5546C103.08 23.5546 101.181 22.1778 101.181 19.6483C101.181 16.9922 103.182 15.3589 107.261 15.3589V15.3654ZM106.797 20.7004C108.645 20.7004 109.826 19.2002 110.005 18.0508C109.01 18.0248 108.338 18.0183 107.646 18.0183C105.874 18.0183 105.156 18.5541 105.156 19.447C105.156 20.2653 105.747 20.6971 106.797 20.6971V20.7004Z" fill="white"/>
<path d="M137.304 15.3654C137.995 15.3654 138.88 15.3752 140.048 15.3395V14.8784C140.048 13.5243 139.151 12.784 137.816 12.784C136.481 12.784 135.662 13.3977 135.61 14.4952H131.658C131.785 11.8391 133.763 9.72201 137.816 9.72201C141.637 9.72201 144 11.6638 144 15.1836V23.3013H140.048V21.7427C138.893 23.0188 137.33 23.5546 135.662 23.5546C133.123 23.5546 131.224 22.1778 131.224 19.6483C131.224 16.9922 133.224 15.3589 137.304 15.3589V15.3654ZM136.84 20.7004C138.687 20.7004 139.869 19.2002 140.048 18.0508C139.115 18.0605 138.38 18.0215 137.689 18.0215C135.917 18.0215 135.199 18.5573 135.199 19.4503C135.199 20.2685 135.789 20.7004 136.84 20.7004Z" fill="white"/>
<path d="M94.3607 6.53014L88.9729 13.3068L83.5622 6.53014H79.5025V23.3078H83.7612V12.7385L86.9659 17.7358H90.833L94.0605 12.7126V23.3078H98.3192V6.53014H94.3607Z" fill="white"/>
<path d="M118.813 23.6812H123.105L121.205 28.3992H116.911L118.813 23.6812Z" fill="url(#paint0_linear_664_577)"/>
<path d="M124.916 23.6844L130.467 9.98178H126.257L123 19.0703L119.743 9.98178H115.302L120.843 23.6844H124.916Z" fill="white"/>
<path d="M56.3651 13.8296V1.3543C56.3651 0.620462 55.7777 0.0230001 55.0402 0.00676474C54.2831 -0.00947064 53.5227 0.00351767 52.7787 0.0457296C49.5904 0.224319 46.513 0.935428 43.6282 2.15958C41.3503 3.1272 39.1932 4.41629 37.2221 5.98463C35.8483 7.0789 34.6082 8.26732 33.5378 9.52394C33.4888 9.57914 33.4464 9.63759 33.3974 9.69279C33.3518 9.63759 33.3061 9.57914 33.2571 9.52394C32.1835 8.27057 30.9467 7.0789 29.5728 5.98463C27.6017 4.41305 25.4446 3.1272 23.1667 2.15958C20.2852 0.932181 17.2078 0.221072 14.0195 0.0457296C13.2754 0.00351767 12.5151 -0.00622356 11.758 0.00676474C11.0204 0.0230001 10.433 0.620462 10.433 1.3543V13.8296H0V26.9055H13.1416V16.6188C14.6852 16.7941 16.0591 17.239 17.2992 17.9663C18.2586 18.5313 19.1854 19.3236 20.1351 20.3919C20.5854 20.8984 20.9999 21.4407 21.4404 22.0122C21.8451 22.535 22.2595 23.0805 22.7131 23.6033C22.7654 23.665 22.8176 23.7202 22.873 23.7818L22.9448 23.8598L23.9467 22.9733L22.9514 23.8858C26.3453 27.5517 29.5989 29.5909 32.624 29.948C32.9177 29.9838 33.2114 30 33.5084 30C36.7522 30 40.2277 27.9381 43.8533 23.8598L43.9284 23.7754C43.9806 23.7202 44.0296 23.6617 44.0785 23.6065C44.5321 23.0837 44.9466 22.5415 45.3512 22.0187C45.7918 21.4472 46.2062 20.9049 46.6598 20.3984C47.6095 19.3301 48.5395 18.5346 49.4957 17.9728C50.7358 17.2422 52.1064 16.8006 53.6533 16.6253V26.912H66.7949V13.8361H56.3619L56.3651 13.8296ZM10.433 24.2072H2.70861V16.5246H10.4298V24.2072H10.433ZM43.2039 20.3724C42.8058 20.8887 42.4338 21.3758 42.0291 21.8401L41.8268 22.0641C38.5405 25.7626 35.4697 27.5647 32.9438 27.2627C30.6203 26.9867 27.8595 25.1911 24.9616 22.0674L24.9681 22.0609L24.7691 21.8369C24.3677 21.3725 23.9924 20.8855 23.5943 20.3659C23.1439 19.7815 22.6805 19.1775 22.1649 18.5995C21.0227 17.3169 19.8838 16.3493 18.6763 15.6382C17.0381 14.6771 15.1813 14.0958 13.1416 13.901V2.70508C13.3864 2.71158 13.6279 2.72132 13.8694 2.73431C16.7411 2.89341 19.5118 3.53309 22.1061 4.63709C24.1588 5.51056 26.1005 6.66976 27.8823 8.08874C29.1224 9.07585 30.2352 10.1474 31.1979 11.2709C31.4786 11.6021 31.7462 11.9398 32.0301 12.3002L32.2292 12.5567C32.5196 13.099 33.0874 13.651 33.7009 14.2419C36.8599 17.3007 40.5018 19.0898 44.023 19.3204C43.7391 19.6711 43.4682 20.0217 43.2039 20.3692V20.3724ZM48.1218 15.6414C47.7009 15.8882 47.2864 16.1675 46.8785 16.4792C46.5717 16.5246 46.2715 16.5636 45.9811 16.5896C45.7494 16.6123 45.5144 16.6285 45.2762 16.6415C45.0575 16.6513 44.8389 16.6545 44.617 16.6513C41.6212 16.5928 38.4133 15.0505 35.5839 12.3132C35.5023 12.2352 35.3196 12.0469 35.127 11.8424C35.2837 11.6475 35.4371 11.456 35.597 11.2709C36.5564 10.1474 37.6725 9.07585 38.9126 8.08874C40.6911 6.66976 42.6361 5.51056 44.6888 4.63709C47.2799 3.53309 50.0537 2.89341 52.9255 2.73431C53.167 2.72132 53.4085 2.71158 53.6533 2.70508V13.901C51.6104 14.0958 49.7535 14.6771 48.1186 15.6382L48.1218 15.6414ZM64.0896 24.2072H56.3684V16.5246H64.0896V24.2072Z" fill="url(#paint1_linear_664_577)"/>
<path d="M91.0451 20.7945H86.9234V23.3078H91.0451V20.7945Z" fill="#72FFA0"/>
<defs>
<linearGradient id="paint0_linear_664_577" x1="133.834" y1="-6.86284e-07" x2="127.08" y2="22.13" gradientUnits="userSpaceOnUse">
<stop stop-color="#C9C9C9"/>
<stop offset="1" stop-color="white"/>
</linearGradient>
<linearGradient id="paint1_linear_664_577" x1="41.6283" y1="36.6533" x2="63.0735" y2="-18.4309" gradientUnits="userSpaceOnUse">
<stop stop-color="#54EEF6"/>
<stop offset="1" stop-color="#72FFA0"/>
</linearGradient>
</defs>
</svg>
